<?xml version="1.0" standalone="no"?>
<!DOCTYPE svg PUBLIC "-//W3C//DTD SVG 20010904//EN"
 "http://www.w3.org/TR/2001/REC-SVG-20010904/DTD/svg10.dtd">
<svg version="1.0" xmlns="http://www.w3.org/2000/svg"
 width="2159.000000pt" height="2160.000000pt" viewBox="0 0 2159.000000 2160.000000"
 preserveAspectRatio="xMidYMid meet">
<metadata>
Created by potrace 1.16, written by Peter Selinger 2001-2019
</metadata>
<g transform="translate(0.000000,2160.000000) scale(0.100000,-0.100000)"
fill="#000000" stroke="none">
<path d="M7790 20675 c-479 -33 -1086 -143 -1555 -282 -1433 -424 -2692 -1256
-3652 -2413 -864 -1043 -1432 -2321 -1627 -3660 -63 -427 -80 -706 -73 -1198
5 -413 16 -574 63 -919 122 -911 422 -1811 869 -2610 36 -63 65 -121 65 -127
0 -7 -239 -921 -530 -2031 -292 -1110 -530 -2025 -530 -2033 0 -11 8 -13 28
-9 15 3 944 269 2064 591 l2038 585 172 -83 c817 -394 1743 -643 2623 -705
315 -23 294 -19 301 -49 163 -708 420 -1350 778 -1947 636 -1059 1564 -1919
2665 -2470 764 -382 1563 -603 2424 -670 251 -20 743 -20 994 0 976 76 1883
353 2725 832 l166 94 1469 -432 c1466 -431 1563 -459 1563 -455 0 2 -191 690
-425 1530 -234 840 -425 1531 -425 1535 0 4 34 66 75 137 434 744 723 1616
824 2489 36 305 44 488 38 874 -5 387 -21 589 -72 911 -163 1040 -569 2006
-1208 2870 -652 881 -1559 1610 -2560 2056 -367 164 -857 329 -1184 399 -78
17 -83 19 -83 44 -1 129 -42 566 -76 796 -152 1034 -522 2024 -1091 2920 -429
674 -994 1303 -1628 1811 -1181 948 -2635 1517 -4134 1619 -269 18 -822 18
-1091 0z m1131 -776 c134 -10 398 -45 559 -74 47 -8 126 -22 175 -31 133 -23
292 -60 455 -106 80 -22 163 -44 186 -48 22 -5 89 -27 148 -49 60 -23 114 -41
120 -41 16 0 217 -76 332 -126 56 -24 106 -44 111 -44 6 0 51 -20 102 -45 50
-25 96 -45 101 -45 5 0 76 -35 157 -77 81 -42 165 -85 186 -95 21 -11 62 -34
90 -52 29 -18 60 -36 70 -39 10 -4 42 -22 70 -40 29 -18 64 -39 79 -47 53 -29
154 -94 203 -129 28 -20 58 -41 67 -46 42 -25 175 -121 197 -142 13 -13 28
-23 33 -23 5 0 33 -20 61 -45 29 -25 57 -45 64 -45 7 0 13 -4 13 -8 0 -4 23
-26 52 -47 29 -22 73 -58 99 -80 25 -22 68 -58 95 -80 77 -64 123 -108 338
-320 241 -238 337 -344 531 -585 129 -160 316 -418 354 -489 8 -14 32 -49 53
-78 21 -29 38 -56 38 -60 0 -4 18 -35 40 -68 22 -33 40 -63 40 -67 0 -4 13
-26 29 -50 15 -24 45 -74 66 -113 51 -94 146 -276 155 -295 4 -8 28 -58 54
-111 25 -53 46 -101 46 -106 0 -6 14 -40 32 -74 29 -59 85 -196 125 -309 9
-25 31 -83 49 -130 17 -47 36 -101 42 -120 5 -19 29 -96 53 -170 23 -74 46
-153 49 -175 4 -22 24 -103 43 -180 64 -250 112 -519 142 -790 8 -77 20 -192
27 -255 18 -158 17 -891 0 -1070 -7 -74 -17 -162 -22 -195 -5 -33 -14 -110
-19 -171 -12 -129 -78 -479 -128 -674 -19 -74 -38 -153 -42 -175 -4 -22 -27
-103 -51 -180 -37 -121 -65 -205 -147 -435 -9 -25 -27 -68 -40 -97 -12 -28
-23 -57 -23 -63 0 -5 -20 -54 -45 -107 -25 -53 -45 -100 -45 -105 0 -13 -202
-416 -233 -465 -15 -24 -27 -46 -27 -49 0 -4 -20 -40 -45 -80 -25 -39 -45 -75
-45 -79 0 -3 -13 -25 -29 -49 -16 -23 -41 -64 -56 -91 -15 -28 -36 -59 -45
-70 -10 -11 -26 -34 -37 -52 -10 -18 -49 -78 -88 -133 -38 -56 -74 -109 -80
-118 -5 -9 -12 -19 -15 -22 -3 -3 -18 -23 -35 -45 -16 -22 -35 -46 -42 -53 -7
-7 -13 -16 -13 -20 0 -4 -15 -24 -33 -44 -17 -20 -52 -63 -77 -94 -152 -191
-303 -359 -490 -544 -101 -100 -299 -284 -349 -325 -13 -11 -45 -38 -71 -60
-26 -22 -73 -60 -105 -85 -31 -25 -73 -60 -93 -77 -20 -18 -40 -33 -44 -33 -3
0 -26 -16 -50 -36 -23 -19 -50 -41 -58 -48 -9 -7 -22 -15 -30 -19 -8 -4 -46
-30 -85 -58 -93 -66 -291 -199 -298 -199 -3 0 -29 -16 -58 -36 -30 -20 -65
-40 -78 -45 -13 -5 -35 -18 -50 -28 -68 -48 -594 -321 -619 -321 -5 0 -52 -20
-105 -45 -53 -25 -101 -45 -107 -45 -6 0 -30 -8 -53 -19 -103 -46 -140 -61
-150 -61 -6 0 -65 -20 -131 -44 -143 -51 -409 -136 -430 -136 -8 0 -81 -18
-162 -40 -82 -22 -159 -40 -173 -40 -13 0 -96 -16 -185 -34 -157 -34 -194 -40
-461 -71 -507 -60 -1114 -60 -1560 0 -60 8 -127 15 -149 15 -22 0 -141 20
-265 44 -124 25 -248 49 -276 54 -91 17 -308 75 -446 119 -75 23 -142 43 -150
43 -29 0 -462 166 -577 220 -45 22 -87 40 -92 40 -8 0 -155 67 -223 102 -10 5
-55 28 -100 50 -45 23 -107 56 -138 75 -31 18 -65 33 -74 33 -15 0 -3150 -820
-3192 -835 -44 -15 -32 32 392 1555 l424 1524 -21 35 c-12 20 -32 50 -45 67
-13 17 -23 34 -23 39 0 4 -18 36 -40 71 -22 35 -40 66 -40 69 0 3 -12 24 -26
47 -66 103 -324 622 -324 650 0 6 -20 56 -44 112 -58 135 -146 375 -197 541
-36 117 -108 380 -112 410 -2 17 -20 102 -40 190 -36 163 -70 369 -110 665
-20 153 -22 205 -22 710 0 593 2 626 65 1020 47 295 50 310 76 420 14 58 30
128 35 155 20 113 153 544 221 719 21 55 38 104 38 109 0 5 20 54 45 109 25
55 45 104 45 109 0 10 54 129 129 284 22 44 42 87 44 97 3 9 24 46 46 83 23
37 41 72 41 79 0 6 11 27 24 47 13 20 38 60 54 90 39 72 86 149 137 229 24 36
44 70 46 75 9 22 137 211 153 224 9 7 16 19 16 25 0 7 8 21 18 32 10 10 44 55
77 99 32 44 61 82 64 85 3 3 17 21 30 40 14 19 32 44 42 55 16 18 78 91 131
155 232 277 570 611 857 845 34 28 78 65 99 82 20 18 42 33 49 33 7 0 16 6 20
13 4 8 44 40 88 73 44 32 89 66 99 76 11 10 25 18 30 18 6 0 26 13 45 29 19
16 46 35 60 43 14 7 28 15 31 18 11 12 110 80 117 80 3 0 20 10 37 23 34 26
221 138 248 149 9 4 36 19 60 34 35 22 143 80 246 133 104 53 381 181 392 181
5 0 44 16 87 36 43 20 96 42 118 50 22 7 76 27 120 44 44 17 94 35 110 39 17
5 84 26 150 49 236 80 770 212 857 212 18 0 49 5 68 10 52 15 444 70 562 79
157 12 957 12 1109 0z m6950 -7524 c36 -8 118 -33 182 -55 64 -22 122 -40 128
-40 7 0 63 -20 126 -45 62 -25 118 -45 123 -45 6 0 49 -18 96 -40 47 -22 90
-40 95 -40 7 0 136 -59 234 -107 63 -31 240 -126 261 -140 13 -8 41 -24 63
-36 73 -39 206 -120 211 -128 3 -5 24 -19 46 -31 60 -34 217 -143 233 -162 7
-9 19 -16 25 -16 6 0 34 -20 61 -45 28 -24 56 -45 63 -45 6 0 12 -3 12 -8 0
-4 26 -27 57 -52 32 -25 80 -65 108 -89 27 -24 79 -69 114 -100 150 -133 421
-412 524 -540 41 -51 143 -177 155 -191 28 -33 112 -150 112 -155 0 -4 7 -14
16 -23 16 -15 115 -160 144 -211 9 -14 35 -54 58 -89 23 -35 42 -66 42 -70 0
-4 10 -23 22 -42 82 -128 338 -642 338 -679 0 -4 18 -50 40 -101 22 -51 40
-98 40 -104 0 -6 16 -53 35 -104 19 -50 46 -131 59 -180 13 -48 38 -133 55
-189 17 -56 31 -112 31 -124 0 -11 7 -47 15 -79 32 -123 66 -299 75 -385 5
-49 16 -142 24 -205 52 -389 48 -973 -9 -1326 -8 -52 -15 -112 -15 -134 0 -21
-14 -104 -31 -182 -16 -79 -37 -179 -46 -223 -23 -118 -116 -438 -168 -580
-12 -33 -30 -85 -40 -115 -10 -30 -21 -59 -26 -65 -4 -5 -17 -38 -28 -73 -22
-64 -70 -171 -147 -327 -24 -49 -44 -94 -44 -99 0 -5 -20 -42 -45 -82 -25 -39
-45 -76 -45 -81 0 -5 -20 -41 -45 -81 -25 -40 -45 -75 -45 -79 0 -4 -20 -36
-43 -72 -24 -37 -52 -80 -62 -98 l-18 -32 265 -1023 c146 -563 262 -1024 257
-1026 -5 -2 -420 141 -924 318 -534 187 -924 319 -934 315 -10 -3 -26 -14 -36
-25 -10 -11 -22 -20 -27 -20 -5 0 -32 -17 -61 -38 -29 -20 -59 -42 -68 -47
-26 -17 -161 -105 -214 -141 -28 -19 -53 -34 -57 -34 -3 0 -39 -20 -79 -45
-40 -25 -77 -45 -82 -45 -5 0 -42 -20 -81 -45 -40 -25 -77 -45 -82 -45 -5 0
-49 -20 -99 -44 -171 -84 -338 -156 -460 -198 -33 -12 -87 -31 -120 -43 -147
-55 -450 -144 -521 -155 -33 -5 -104 -19 -159 -33 -171 -42 -447 -81 -755
-107 -145 -12 -631 -12 -770 0 -340 30 -574 64 -764 111 -65 16 -128 29 -140
29 -12 0 -68 14 -126 31 -58 17 -132 38 -165 46 -33 9 -114 36 -180 60 -66 24
-125 43 -130 43 -6 0 -49 16 -95 36 -47 20 -96 39 -110 43 -94 30 -581 272
-675 336 -21 14 -41 25 -46 25 -4 0 -36 19 -71 42 -35 23 -75 49 -90 58 -38
22 -275 185 -328 226 -162 126 -282 225 -403 334 -74 66 -323 318 -388 391
-31 35 -78 89 -105 119 -27 31 -67 79 -89 108 -21 28 -43 52 -47 52 -4 0 -8 6
-8 13 0 6 -21 35 -45 62 -25 28 -45 55 -45 61 0 6 -6 17 -14 24 -19 15 -133
179 -164 233 -12 23 -26 44 -31 47 -8 5 -89 138 -128 211 -12 22 -28 50 -36
63 -46 69 -247 473 -247 494 0 4 -17 48 -39 97 -51 119 -131 327 -131 342 0 7
-20 72 -44 145 -54 167 -100 349 -89 358 4 4 58 12 118 19 1391 151 2733 709
3840 1596 533 427 1042 969 1424 1515 708 1014 1138 2109 1301 3314 11 82 20
153 20 159 0 5 10 6 23 3 12 -4 52 -13 88 -21z"/>
<path d="M8110 18095 c-466 -37 -899 -139 -1345 -317 -172 -69 -542 -249 -692
-338 l-103 -60 0 -600 0 -600 118 78 c430 288 909 530 1301 656 544 176 1088
193 1520 50 339 -113 632 -355 775 -642 131 -261 154 -642 56 -934 -57 -170
-173 -374 -312 -547 -33 -42 -319 -332 -634 -646 -582 -580 -710 -719 -853
-930 -177 -259 -266 -498 -322 -860 -22 -144 -23 -178 -27 -827 l-3 -678 609
0 610 0 5 633 c5 644 9 715 48 912 37 182 127 353 294 555 43 52 345 361 670
685 642 640 762 773 934 1034 163 249 266 503 316 781 23 127 31 442 16 596
-55 548 -279 997 -677 1357 -140 127 -250 207 -411 300 -492 281 -1149 400
-1893 342z"/>
<path d="M7550 9125 l0 -815 650 0 650 0 0 815 0 815 -650 0 -650 0 0 -815z"/>
</g>
</svg>
